<svg width="24" height="24" viewBox="0 0 24 24" fill="none" xmlns="http://www.w3.org/2000/svg">
<path d="M12 18V23.1429M12 18C14.2733 18 16.4535 17.0969 18.0609 15.4895C19.6684 13.882 20.5714 11.7019 20.5714 9.42857M12 18C9.72673 18 7.54656 17.0969 5.9391 15.4895C4.33165 13.882 3.42859 11.7019 3.42859 9.42857M3.42859 23.1429H20.5714M20.5714 9.42857C20.5714 7.15529 19.6684 4.97511 18.0609 3.36766C16.4535 1.7602 14.2733 0.857143 12 0.857143C9.72673 0.857143 7.54656 1.7602 5.9391 3.36766C4.33165 4.97511 3.42859 7.15529 3.42859 9.42857M20.5714 9.42857H3.42859" stroke="black" stroke-linecap="round" stroke-linejoin="round"/>
<path d="M12 18C17.1429 12.1371 17.1429 6.41143 12 0.857143C6.96 6.20572 6.85715 11.8971 12 18Z" stroke="black" stroke-linecap="round" stroke-linejoin="round"/>
</svg>
