<svg width="24" height="24" viewBox="0 0 24 24" fill="none" xmlns="http://www.w3.org/2000/svg">
<path d="M15.6 0C16.2365 0 16.847 0.252856 17.2971 0.702944C17.7472 1.15303 18 1.76348 18 2.4H7.20002C6.5635 2.4 5.95306 2.65286 5.50297 3.10294C5.05288 3.55303 4.80002 4.16348 4.80002 4.8V19.2C4.1635 19.2 3.55306 18.9471 3.10297 18.4971C2.65288 18.047 2.40002 17.4365 2.40002 16.8V2.4C2.40002 1.76348 2.65288 1.15303 3.10297 0.702944C3.55306 0.252856 4.1635 0 4.80002 0L15.6 0Z" fill="black"/>
<path d="M21.6 6C21.6 5.36348 21.3471 4.75303 20.8971 4.30294C20.447 3.85285 19.8365 3.6 19.2 3.6H8.4C7.76348 3.6 7.15303 3.85285 6.70294 4.30294C6.25286 4.75303 6 5.36348 6 6V21.6C6 22.2365 6.25286 22.847 6.70294 23.2971C7.15303 23.7471 7.76348 24 8.4 24H19.2C19.8365 24 20.447 23.7471 20.8971 23.2971C21.3471 22.847 21.6 22.2365 21.6 21.6V6ZM13.2 12H8.4V6H13.2V12ZM19.2 7.2H14.4V6H19.2V7.2ZM19.2 9.6H14.4V8.4H19.2V9.6ZM19.2 12H14.4V10.8H19.2V12ZM19.2 14.4H8.4V13.2H19.2V14.4ZM19.2 16.8H8.4V15.6H19.2V16.8ZM19.2 19.2H8.4V18H19.2V19.2Z" fill="black"/>
</svg>
