<svg width="44" height="37" viewBox="0 0 44 37" fill="none" xmlns="http://www.w3.org/2000/svg">
<g clip-path="url(#clip0_9_40)">
<path d="M38.9914 27.1831H24.1572C23.9905 27.1831 23.657 27.1831 23.4903 27.3476L12.3231 36.0709C12.1564 36.2356 12.1564 36.4002 12.3231 36.5648C12.3231 36.7295 12.4898 36.7295 12.6565 36.7295H39.1579C41.8249 36.7295 44.1583 34.4249 43.9917 31.627C43.825 28.9936 41.4915 27.183 38.9914 27.183" fill="#00C9DB"/>
<path d="M26.889 17.9939C26.7223 16.6772 26.0556 15.3605 25.0556 14.5375L7.88789 1.04095C5.72106 -0.60504 2.72098 -0.275774 1.05414 1.86395C-0.612705 4.00367 -0.279267 6.96621 1.88756 8.6122L14.3882 18.4876L1.88756 28.3631C-0.279267 30.0091 -0.612705 32.9718 1.05414 35.1113C2.72098 37.251 5.72106 37.5803 7.88789 35.9345L25.0556 22.1087C26.2223 21.1211 26.889 19.8044 26.889 18.323V17.9939Z" fill="#0D55FF"/>
<path d="M43.9917 31.9561C43.9917 34.5896 41.8249 36.7293 39.1581 36.7293C36.4913 36.7293 34.3245 34.5896 34.3245 31.9561C34.3245 29.3227 36.4913 27.183 39.1581 27.183C41.8249 27.183 43.9917 29.3227 43.9917 31.9561Z" fill="#7000F2"/>
</g>
<defs>
<clipPath id="clip0_9_40">
<rect width="44" height="37" fill="white"/>
</clipPath>
</defs>
</svg>
