<svg width="34" height="34" viewBox="0 0 34 34" fill="none" xmlns="http://www.w3.org/2000/svg">
<path d="M13.2742 7.80583C13.0192 8.72381 12.8905 9.67226 12.8917 10.625C12.8917 16.405 17.595 21.1083 23.375 21.1083C24.3383 21.1083 25.2875 20.9808 26.1942 20.7258C25.4506 22.5548 24.1788 24.1206 22.5412 25.2233C20.9035 26.326 18.9743 26.9156 17 26.9167C11.5317 26.9167 7.08334 22.4683 7.08334 17C7.08334 12.8492 9.64751 9.27917 13.2742 7.80583ZM17 4.25C14.4783 4.25 12.0132 4.99777 9.91649 6.39876C7.81976 7.79975 6.18556 9.79103 5.22054 12.1208C4.25552 14.4505 4.00303 17.0141 4.49499 19.4874C4.98695 21.9607 6.20127 24.2325 7.98439 26.0156C9.76751 27.7987 12.0393 29.0131 14.5126 29.505C16.9859 29.997 19.5495 29.7445 21.8792 28.7795C24.209 27.8144 26.2003 26.1802 27.6012 24.0835C29.0022 21.9868 29.75 19.5217 29.75 17C29.75 16.3483 29.6933 15.6967 29.6083 15.0733C28.9004 16.0658 27.9651 16.8744 26.8806 17.4314C25.7962 17.9884 24.5941 18.2777 23.375 18.275C21.7532 18.275 20.1733 17.7599 18.8632 16.804C17.5531 15.8481 16.5805 14.5007 16.0856 12.9563C15.5907 11.4118 15.5992 9.75011 16.1099 8.2108C16.6205 6.67149 17.6068 5.33415 18.9267 4.39167C18.3033 4.30667 17.6517 4.25 17 4.25Z" fill="black"/>
</svg>
